<svg xmlns="http://www.w3.org/2000/svg" xmlns:xlink="http://www.w3.org/1999/xlink" width="500" zoomAndPan="magnify" viewBox="0 0 375 374.999991" height="500" preserveAspectRatio="xMidYMid meet" version="1.0"><defs><clipPath id="83834fc580"><path d="M 144.351562 98 L 172 98 L 172 209 L 144.351562 209 Z M 144.351562 98 " clip-rule="nonzero"/></clipPath><clipPath id="3c999b48c1"><path d="M 203 122 L 230.601562 122 L 230.601562 231.386719 L 203 231.386719 Z M 203 122 " clip-rule="nonzero"/></clipPath><clipPath id="355fa5be99"><path d="M 174 74.769531 L 201 74.769531 L 201 200 L 174 200 Z M 174 74.769531 " clip-rule="nonzero"/></clipPath></defs><g clip-path="url(#83834fc580)"><path fill="#ffffff" d="M 171.097656 98.699219 L 144.398438 117.261719 L 144.398438 190.5 L 171.097656 208.046875 L 171.097656 142.085938 C 166.472656 143.484375 164.511719 144.097656 161.554688 144.066406 C 161.398438 144.066406 161.242188 144.0625 161.09375 144.050781 L 164.285156 150.832031 L 165.433594 150.832031 C 165.433594 154.949219 162.097656 158.289062 157.980469 158.289062 C 153.859375 158.289062 150.519531 154.949219 150.519531 150.832031 L 151.675781 150.832031 L 156.160156 141.296875 C 155.964844 140.953125 155.851562 140.550781 155.851562 140.121094 C 155.851562 138.789062 156.929688 137.714844 158.257812 137.714844 C 159.589844 137.710938 160.664062 138.789062 160.664062 140.121094 C 160.664062 140.570312 160.539062 140.992188 160.324219 141.355469 C 161.605469 141.472656 163.1875 141.226562 165.085938 140.140625 C 167.183594 138.945312 169.179688 137.890625 171.097656 136.988281 Z M 159.53125 143.789062 C 158.488281 143.5 157.648438 143.011719 157.046875 142.460938 L 153.113281 150.832031 L 162.84375 150.832031 Z M 159.53125 143.789062 " fill-opacity="1" fill-rule="evenodd"/></g><g clip-path="url(#3c999b48c1)"><path fill="#ffffff" d="M 203.90625 122.191406 L 230.605469 140.757812 L 230.605469 213.992188 L 203.90625 231.539062 L 203.90625 142.085938 C 208.527344 143.484375 210.492188 144.097656 213.449219 144.066406 C 213.605469 144.066406 213.761719 144.0625 213.914062 144.050781 L 210.722656 150.832031 L 209.570312 150.832031 C 209.570312 154.949219 212.910156 158.289062 217.027344 158.289062 C 221.144531 158.289062 224.488281 154.949219 224.488281 150.832031 L 223.332031 150.832031 L 218.847656 141.296875 C 219.042969 140.953125 219.15625 140.550781 219.15625 140.121094 C 219.15625 138.789062 218.074219 137.714844 216.75 137.714844 C 215.417969 137.710938 214.339844 138.789062 214.339844 140.121094 C 214.339844 140.570312 214.46875 140.992188 214.679688 141.355469 C 213.398438 141.472656 211.816406 141.226562 209.921875 140.140625 C 207.824219 138.945312 205.828125 137.890625 203.90625 136.988281 Z M 217.953125 142.460938 C 217.355469 143.011719 216.511719 143.5 215.472656 143.789062 L 212.15625 150.832031 L 221.890625 150.832031 Z M 217.953125 142.460938 " fill-opacity="1" fill-rule="evenodd"/></g><g clip-path="url(#355fa5be99)"><path fill="#d2ae6d" d="M 200.855469 74.636719 L 174.148438 95.835938 L 174.148438 135.644531 C 178.261719 133.976562 182.054688 133.03125 185.808594 132.816406 L 183.960938 122.21875 L 187.503906 119.507812 L 191.042969 122.21875 L 189.195312 132.8125 C 192.949219 133.03125 196.742188 133.976562 200.855469 135.644531 Z M 174.148438 141.171875 L 174.148438 143.917969 L 200.851562 143.917969 L 200.851562 141.171875 L 199.597656 140.804688 C 193.070312 138.910156 181.921875 138.910156 175.398438 140.804688 C 174.96875 140.929688 174.550781 141.050781 174.148438 141.171875 Z M 174.148438 148.363281 L 174.148438 179.457031 L 200.855469 199.492188 L 200.855469 148.363281 C 200.058594 148.121094 199.445312 147.457031 199.28125 146.628906 L 188.859375 146.628906 L 188.859375 179.898438 L 186.144531 179.898438 L 186.144531 146.628906 L 175.722656 146.628906 C 175.558594 147.457031 174.945312 148.125 174.148438 148.363281 Z M 183.488281 148.96875 L 183.488281 179.914062 L 178.757812 179.914062 L 178.757812 177.203125 L 180.777344 177.203125 L 180.777344 148.96875 Z M 191.515625 148.96875 L 191.515625 179.914062 L 196.246094 179.914062 L 196.246094 177.203125 L 194.226562 177.203125 L 194.226562 148.96875 Z M 191.515625 148.96875 " fill-opacity="1" fill-rule="evenodd"/></g></svg>