<svg xmlns="http://www.w3.org/2000/svg" xmlns:xlink="http://www.w3.org/1999/xlink" width="500" zoomAndPan="magnify" viewBox="0 0 375 374.999991" height="500" preserveAspectRatio="xMidYMid meet" version="1.0"><defs><g/><clipPath id="261791a317"><rect x="0" width="203" y="0" height="51"/></clipPath><clipPath id="d1657f00cf"><rect x="0" width="80" y="0" height="18"/></clipPath></defs><g transform="matrix(1, 0, 0, 1, 92, 155)"><g clip-path="url(#261791a317)"><g fill="#ffffff" fill-opacity="1"><g transform="translate(1.895262, 39.728104)"><g><path d="M 14.234375 0 L 2.234375 0 C 1.753906 0 1.515625 -0.265625 1.515625 -0.796875 L 1.515625 -28.3125 C 1.515625 -28.851562 1.742188 -29.125 2.203125 -29.125 L 6.421875 -29.125 C 6.878906 -29.125 7.109375 -28.851562 7.109375 -28.3125 L 7.109375 -5.078125 L 14.234375 -5.078125 C 14.617188 -5.078125 14.8125 -4.835938 14.8125 -4.359375 L 14.8125 -0.75 C 14.8125 -0.25 14.617188 0 14.234375 0 Z M 14.234375 0 "/></g></g></g><g fill="#ffffff" fill-opacity="1"><g transform="translate(29.888558, 39.728104)"><g><path d="M 7.109375 -5.078125 L 14.921875 -5.078125 C 15.085938 -5.078125 15.226562 -5.015625 15.34375 -4.890625 C 15.46875 -4.773438 15.53125 -4.597656 15.53125 -4.359375 L 15.53125 -0.734375 C 15.53125 -0.484375 15.46875 -0.296875 15.34375 -0.171875 C 15.226562 -0.0546875 15.085938 0 14.921875 0 L 2.234375 0 C 1.753906 0 1.515625 -0.265625 1.515625 -0.796875 L 1.515625 -28.3125 C 1.515625 -28.851562 1.753906 -29.125 2.234375 -29.125 L 14.8125 -29.125 C 15.207031 -29.125 15.40625 -28.867188 15.40625 -28.359375 L 15.40625 -24.78125 C 15.40625 -24.269531 15.207031 -24.015625 14.8125 -24.015625 L 7.109375 -24.015625 L 7.109375 -17.265625 L 13.265625 -17.265625 C 13.441406 -17.265625 13.597656 -17.207031 13.734375 -17.09375 C 13.867188 -16.976562 13.9375 -16.789062 13.9375 -16.53125 L 13.9375 -12.921875 C 13.9375 -12.671875 13.875 -12.488281 13.75 -12.375 C 13.625 -12.257812 13.460938 -12.203125 13.265625 -12.203125 L 7.109375 -12.203125 Z M 7.109375 -5.078125 "/></g></g></g><g fill="#ffffff" fill-opacity="1"><g transform="translate(58.618258, 39.728104)"><g><path d="M 16.734375 0 L 12.25 0 C 12.039062 0 11.867188 -0.0390625 11.734375 -0.125 C 11.597656 -0.207031 11.488281 -0.394531 11.40625 -0.6875 L 8.953125 -8.234375 L 8.71875 -9.265625 L 8.546875 -8.203125 L 6.109375 -0.6875 C 6.023438 -0.394531 5.914062 -0.207031 5.78125 -0.125 C 5.65625 -0.0390625 5.472656 0 5.234375 0 L 0.78125 0 C 0.59375 0 0.4375 -0.0703125 0.3125 -0.21875 C 0.195312 -0.363281 0.191406 -0.566406 0.296875 -0.828125 L 5.890625 -15.015625 L 5.890625 -15.03125 L 0.4375 -28.296875 C 0.375 -28.484375 0.382812 -28.664062 0.46875 -28.84375 C 0.5625 -29.03125 0.726562 -29.125 0.96875 -29.125 L 5.453125 -29.125 C 5.890625 -29.125 6.171875 -28.878906 6.296875 -28.390625 L 8.546875 -20.9375 L 8.734375 -19.78125 L 8.921875 -20.9375 L 11.234375 -28.390625 C 11.347656 -28.878906 11.625 -29.125 12.0625 -29.125 L 16.546875 -29.125 C 16.785156 -29.125 16.945312 -29.03125 17.03125 -28.84375 C 17.113281 -28.664062 17.117188 -28.484375 17.046875 -28.296875 L 11.59375 -15.03125 L 17.203125 -0.828125 C 17.304688 -0.566406 17.300781 -0.363281 17.1875 -0.21875 C 17.070312 -0.0703125 16.921875 0 16.734375 0 Z M 16.734375 0 "/></g></g></g><g fill="#ffffff" fill-opacity="1"><g transform="translate(88.82075, 39.728104)"><g><path d="M 7.109375 -28.3125 L 7.109375 -0.796875 C 7.109375 -0.265625 6.878906 0 6.421875 0 L 2.203125 0 C 1.742188 0 1.515625 -0.265625 1.515625 -0.796875 L 1.515625 -28.3125 C 1.515625 -28.851562 1.742188 -29.125 2.203125 -29.125 L 6.421875 -29.125 C 6.878906 -29.125 7.109375 -28.851562 7.109375 -28.3125 Z M 7.109375 -28.3125 "/></g></g></g><g fill="#ffffff" fill-opacity="1"><g transform="translate(110.186485, 39.728104)"><g><path d="M 16.359375 -22.171875 L 16.359375 -20.125 C 16.359375 -19.800781 16.316406 -19.566406 16.234375 -19.421875 C 16.148438 -19.273438 15.96875 -19.203125 15.6875 -19.203125 L 11.765625 -19.203125 C 11.515625 -19.203125 11.34375 -19.265625 11.25 -19.390625 C 11.15625 -19.523438 11.109375 -19.742188 11.109375 -20.046875 L 11.109375 -22 C 11.109375 -22.414062 11.023438 -22.816406 10.859375 -23.203125 C 10.691406 -23.585938 10.445312 -23.898438 10.125 -24.140625 C 9.800781 -24.390625 9.410156 -24.515625 8.953125 -24.515625 C 8.265625 -24.515625 7.707031 -24.265625 7.28125 -23.765625 C 6.863281 -23.273438 6.65625 -22.695312 6.65625 -22.03125 L 6.65625 -7.15625 C 6.65625 -6.71875 6.742188 -6.300781 6.921875 -5.90625 C 7.109375 -5.519531 7.375 -5.207031 7.71875 -4.96875 C 8.0625 -4.726562 8.472656 -4.609375 8.953125 -4.609375 C 9.722656 -4.609375 10.289062 -4.867188 10.65625 -5.390625 C 11.03125 -5.910156 11.21875 -6.5 11.21875 -7.15625 L 11.21875 -9.65625 C 11.21875 -9.976562 11.265625 -10.195312 11.359375 -10.3125 C 11.453125 -10.425781 11.613281 -10.484375 11.84375 -10.484375 L 15.78125 -10.484375 C 16.019531 -10.484375 16.195312 -10.429688 16.3125 -10.328125 C 16.425781 -10.234375 16.484375 -10.023438 16.484375 -9.703125 L 16.484375 -6.84375 C 16.484375 -5.320312 16.140625 -4.015625 15.453125 -2.921875 C 14.773438 -1.828125 13.863281 -0.988281 12.71875 -0.40625 C 11.582031 0.175781 10.3125 0.46875 8.90625 0.46875 C 7.851562 0.46875 6.851562 0.300781 5.90625 -0.03125 C 4.957031 -0.363281 4.117188 -0.84375 3.390625 -1.46875 C 2.660156 -2.101562 2.085938 -2.875 1.671875 -3.78125 C 1.253906 -4.6875 1.046875 -5.707031 1.046875 -6.84375 L 1.046875 -22.265625 C 1.046875 -23.304688 1.238281 -24.269531 1.625 -25.15625 C 2.007812 -26.050781 2.550781 -26.828125 3.25 -27.484375 C 3.957031 -28.148438 4.785156 -28.664062 5.734375 -29.03125 C 6.691406 -29.394531 7.75 -29.578125 8.90625 -29.578125 C 10.175781 -29.578125 11.28125 -29.363281 12.21875 -28.9375 C 13.164062 -28.519531 13.941406 -27.957031 14.546875 -27.25 C 15.160156 -26.550781 15.613281 -25.757812 15.90625 -24.875 C 16.207031 -23.988281 16.359375 -23.085938 16.359375 -22.171875 Z M 16.359375 -22.171875 "/></g></g></g><g fill="#ffffff" fill-opacity="1"><g transform="translate(140.178579, 39.728104)"><g><path d="M 16.78125 -22.265625 L 16.78125 -6.84375 C 16.78125 -5.707031 16.566406 -4.6875 16.140625 -3.78125 C 15.722656 -2.875 15.148438 -2.101562 14.421875 -1.46875 C 13.691406 -0.84375 12.847656 -0.363281 11.890625 -0.03125 C 10.941406 0.300781 9.941406 0.46875 8.890625 0.46875 C 7.828125 0.46875 6.828125 0.296875 5.890625 -0.046875 C 4.953125 -0.390625 4.117188 -0.878906 3.390625 -1.515625 C 2.660156 -2.148438 2.085938 -2.914062 1.671875 -3.8125 C 1.253906 -4.71875 1.046875 -5.726562 1.046875 -6.84375 L 1.046875 -22.265625 C 1.046875 -23.398438 1.253906 -24.421875 1.671875 -25.328125 C 2.085938 -26.234375 2.660156 -27 3.390625 -27.625 C 4.117188 -28.257812 4.953125 -28.742188 5.890625 -29.078125 C 6.828125 -29.410156 7.828125 -29.578125 8.890625 -29.578125 C 9.941406 -29.578125 10.941406 -29.410156 11.890625 -29.078125 C 12.847656 -28.742188 13.691406 -28.257812 14.421875 -27.625 C 15.148438 -27 15.722656 -26.238281 16.140625 -25.34375 C 16.566406 -24.445312 16.78125 -23.421875 16.78125 -22.265625 Z M 8.921875 -24.515625 C 8.203125 -24.515625 7.644531 -24.253906 7.25 -23.734375 C 6.851562 -23.222656 6.65625 -22.628906 6.65625 -21.953125 L 6.65625 -7.140625 C 6.65625 -6.472656 6.847656 -5.882812 7.234375 -5.375 C 7.617188 -4.863281 8.171875 -4.609375 8.890625 -4.609375 C 9.617188 -4.609375 10.179688 -4.84375 10.578125 -5.3125 C 10.972656 -5.78125 11.171875 -6.347656 11.171875 -7.015625 L 11.171875 -21.953125 C 11.171875 -22.628906 10.972656 -23.222656 10.578125 -23.734375 C 10.179688 -24.253906 9.628906 -24.515625 8.921875 -24.515625 Z M 8.921875 -24.515625 "/></g></g></g><g fill="#ffffff" fill-opacity="1"><g transform="translate(170.71771, 39.728104)"><g><path d="M 16.375 0 L 12.109375 0 C 11.890625 0 11.722656 -0.0820312 11.609375 -0.25 C 11.492188 -0.414062 11.4375 -0.613281 11.4375 -0.84375 L 11.4375 -21.96875 C 11.4375 -22.632812 11.238281 -23.222656 10.84375 -23.734375 C 10.445312 -24.242188 9.898438 -24.5 9.203125 -24.5 C 8.484375 -24.5 7.925781 -24.242188 7.53125 -23.734375 C 7.144531 -23.222656 6.953125 -22.632812 6.953125 -21.96875 L 6.953125 -0.828125 C 6.953125 -0.597656 6.90625 -0.398438 6.8125 -0.234375 C 6.71875 -0.078125 6.550781 0 6.3125 0 L 1.875 0 C 1.71875 0 1.585938 -0.078125 1.484375 -0.234375 C 1.378906 -0.398438 1.328125 -0.597656 1.328125 -0.828125 L 1.328125 -22.296875 C 1.328125 -23.304688 1.535156 -24.25 1.953125 -25.125 C 2.378906 -26.007812 2.953125 -26.785156 3.671875 -27.453125 C 4.390625 -28.117188 5.222656 -28.640625 6.171875 -29.015625 C 7.117188 -29.398438 8.117188 -29.59375 9.171875 -29.59375 C 10.222656 -29.59375 11.222656 -29.398438 12.171875 -29.015625 C 13.117188 -28.640625 13.957031 -28.117188 14.6875 -27.453125 C 15.414062 -26.785156 15.988281 -26.007812 16.40625 -25.125 C 16.832031 -24.25 17.046875 -23.304688 17.046875 -22.296875 L 17.046875 -0.84375 C 17.046875 -0.632812 16.992188 -0.441406 16.890625 -0.265625 C 16.785156 -0.0859375 16.613281 0 16.375 0 Z M 16.375 0 "/></g></g></g></g></g><g transform="matrix(1, 0, 0, 1, 149, 204)"><g clip-path="url(#d1657f00cf)"><g fill="#d2ae6d" fill-opacity="1"><g transform="translate(0.995577, 12.846799)"><g><path d="M 1.671875 0 C 1.421875 0 1.226562 -0.0664062 1.09375 -0.203125 C 0.96875 -0.335938 0.90625 -0.53125 0.90625 -0.78125 L 0.90625 -7.5625 C 0.90625 -7.8125 0.96875 -8 1.09375 -8.125 C 1.226562 -8.25 1.414062 -8.3125 1.65625 -8.3125 C 1.894531 -8.3125 2.078125 -8.25 2.203125 -8.125 C 2.335938 -8 2.40625 -7.8125 2.40625 -7.5625 L 2.40625 -1.28125 L 5.8125 -1.28125 C 6.03125 -1.28125 6.191406 -1.222656 6.296875 -1.109375 C 6.410156 -1.003906 6.46875 -0.847656 6.46875 -0.640625 C 6.46875 -0.441406 6.410156 -0.285156 6.296875 -0.171875 C 6.191406 -0.0546875 6.03125 0 5.8125 0 Z M 1.671875 0 "/></g></g></g><g fill="#d2ae6d" fill-opacity="1"><g transform="translate(10.664876, 12.846799)"><g><path d="M 0.984375 0.09375 C 0.796875 0.09375 0.644531 0.0507812 0.53125 -0.03125 C 0.414062 -0.125 0.347656 -0.238281 0.328125 -0.375 C 0.304688 -0.519531 0.332031 -0.6875 0.40625 -0.875 L 3.515625 -7.75 C 3.617188 -7.96875 3.738281 -8.125 3.875 -8.21875 C 4.019531 -8.320312 4.1875 -8.375 4.375 -8.375 C 4.5625 -8.375 4.726562 -8.320312 4.875 -8.21875 C 5.019531 -8.125 5.140625 -7.96875 5.234375 -7.75 L 8.359375 -0.875 C 8.441406 -0.6875 8.46875 -0.519531 8.4375 -0.375 C 8.414062 -0.226562 8.347656 -0.113281 8.234375 -0.03125 C 8.128906 0.0507812 7.988281 0.09375 7.8125 0.09375 C 7.59375 0.09375 7.421875 0.0390625 7.296875 -0.0625 C 7.179688 -0.164062 7.078125 -0.328125 6.984375 -0.546875 L 6.21875 -2.328125 L 6.84375 -1.921875 L 1.890625 -1.921875 L 2.53125 -2.328125 L 1.78125 -0.546875 C 1.675781 -0.328125 1.566406 -0.164062 1.453125 -0.0625 C 1.347656 0.0390625 1.191406 0.09375 0.984375 0.09375 Z M 4.359375 -6.65625 L 2.71875 -2.734375 L 2.40625 -3.109375 L 6.328125 -3.109375 L 6.046875 -2.734375 L 4.375 -6.65625 Z M 4.359375 -6.65625 "/></g></g></g><g fill="#d2ae6d" fill-opacity="1"><g transform="translate(22.472082, 12.846799)"><g><path d="M 3.8125 0.09375 C 3.601562 0.09375 3.429688 0.0390625 3.296875 -0.0625 C 3.171875 -0.164062 3.070312 -0.328125 3 -0.546875 L 0.546875 -7.484375 C 0.453125 -7.734375 0.46875 -7.941406 0.59375 -8.109375 C 0.71875 -8.285156 0.921875 -8.375 1.203125 -8.375 C 1.421875 -8.375 1.585938 -8.320312 1.703125 -8.21875 C 1.816406 -8.125 1.910156 -7.972656 1.984375 -7.765625 L 4.09375 -1.5 L 3.625 -1.5 L 5.84375 -7.75 C 5.914062 -7.96875 6.007812 -8.125 6.125 -8.21875 C 6.25 -8.320312 6.40625 -8.375 6.59375 -8.375 C 6.78125 -8.375 6.925781 -8.320312 7.03125 -8.21875 C 7.144531 -8.125 7.238281 -7.96875 7.3125 -7.75 L 9.453125 -1.5 L 9.046875 -1.5 L 11.203125 -7.765625 C 11.265625 -7.972656 11.351562 -8.125 11.46875 -8.21875 C 11.59375 -8.320312 11.757812 -8.375 11.96875 -8.375 C 12.21875 -8.375 12.398438 -8.285156 12.515625 -8.109375 C 12.628906 -7.941406 12.644531 -7.734375 12.5625 -7.484375 L 10.078125 -0.53125 C 10.003906 -0.320312 9.90625 -0.164062 9.78125 -0.0625 C 9.65625 0.0390625 9.484375 0.09375 9.265625 0.09375 C 9.054688 0.09375 8.890625 0.0390625 8.765625 -0.0625 C 8.640625 -0.164062 8.535156 -0.328125 8.453125 -0.546875 L 6.421875 -6.375 L 6.6875 -6.375 L 4.625 -0.53125 C 4.539062 -0.320312 4.4375 -0.164062 4.3125 -0.0625 C 4.195312 0.0390625 4.03125 0.09375 3.8125 0.09375 Z M 3.8125 0.09375 "/></g></g></g><g fill="#d2ae6d" fill-opacity="1"><g transform="translate(38.61385, 12.846799)"><g><path d="M 1.6875 0.09375 C 1.4375 0.09375 1.242188 0.0234375 1.109375 -0.109375 C 0.972656 -0.242188 0.90625 -0.441406 0.90625 -0.703125 L 0.90625 -7.484375 C 0.90625 -7.742188 0.972656 -7.941406 1.109375 -8.078125 C 1.242188 -8.210938 1.441406 -8.28125 1.703125 -8.28125 L 5.796875 -8.28125 C 6.003906 -8.28125 6.160156 -8.226562 6.265625 -8.125 C 6.367188 -8.03125 6.421875 -7.890625 6.421875 -7.703125 C 6.421875 -7.503906 6.367188 -7.347656 6.265625 -7.234375 C 6.160156 -7.128906 6.003906 -7.078125 5.796875 -7.078125 L 2.40625 -7.078125 L 2.40625 -4.75 L 5.5625 -4.75 C 5.75 -4.75 5.894531 -4.695312 6 -4.59375 C 6.113281 -4.488281 6.171875 -4.34375 6.171875 -4.15625 C 6.171875 -3.957031 6.113281 -3.804688 6 -3.703125 C 5.894531 -3.597656 5.75 -3.546875 5.5625 -3.546875 L 2.40625 -3.546875 L 2.40625 -0.703125 C 2.40625 -0.171875 2.164062 0.09375 1.6875 0.09375 Z M 1.6875 0.09375 "/></g></g></g><g fill="#d2ae6d" fill-opacity="1"><g transform="translate(48.283149, 12.846799)"><g><path d="M 1.65625 0.09375 C 1.414062 0.09375 1.226562 0.0234375 1.09375 -0.109375 C 0.96875 -0.242188 0.90625 -0.4375 0.90625 -0.6875 L 0.90625 -7.609375 C 0.90625 -7.859375 0.96875 -8.046875 1.09375 -8.171875 C 1.226562 -8.304688 1.414062 -8.375 1.65625 -8.375 C 1.894531 -8.375 2.078125 -8.304688 2.203125 -8.171875 C 2.335938 -8.046875 2.40625 -7.859375 2.40625 -7.609375 L 2.40625 -0.6875 C 2.40625 -0.4375 2.34375 -0.242188 2.21875 -0.109375 C 2.09375 0.0234375 1.90625 0.09375 1.65625 0.09375 Z M 1.65625 0.09375 "/></g></g></g><g fill="#d2ae6d" fill-opacity="1"><g transform="translate(54.66335, 12.846799)"><g><path d="M 1.65625 0.09375 C 1.414062 0.09375 1.226562 0.0234375 1.09375 -0.109375 C 0.96875 -0.242188 0.90625 -0.4375 0.90625 -0.6875 L 0.90625 -7.515625 C 0.90625 -7.765625 0.96875 -7.953125 1.09375 -8.078125 C 1.226562 -8.210938 1.421875 -8.28125 1.671875 -8.28125 L 4.5 -8.28125 C 5.40625 -8.28125 6.101562 -8.0625 6.59375 -7.625 C 7.09375 -7.195312 7.34375 -6.585938 7.34375 -5.796875 C 7.34375 -5.296875 7.226562 -4.859375 7 -4.484375 C 6.78125 -4.117188 6.457031 -3.835938 6.03125 -3.640625 C 5.613281 -3.441406 5.101562 -3.34375 4.5 -3.34375 L 4.609375 -3.53125 L 5 -3.53125 C 5.3125 -3.53125 5.585938 -3.453125 5.828125 -3.296875 C 6.066406 -3.140625 6.28125 -2.890625 6.46875 -2.546875 L 7.34375 -0.921875 C 7.4375 -0.753906 7.476562 -0.59375 7.46875 -0.4375 C 7.46875 -0.28125 7.410156 -0.148438 7.296875 -0.046875 C 7.179688 0.046875 7.019531 0.09375 6.8125 0.09375 C 6.601562 0.09375 6.429688 0.0507812 6.296875 -0.03125 C 6.160156 -0.125 6.046875 -0.265625 5.953125 -0.453125 L 4.765625 -2.640625 C 4.617188 -2.910156 4.445312 -3.085938 4.25 -3.171875 C 4.0625 -3.265625 3.820312 -3.3125 3.53125 -3.3125 L 2.40625 -3.3125 L 2.40625 -0.6875 C 2.40625 -0.4375 2.34375 -0.242188 2.21875 -0.109375 C 2.09375 0.0234375 1.90625 0.09375 1.65625 0.09375 Z M 2.40625 -4.4375 L 4.234375 -4.4375 C 4.773438 -4.4375 5.1875 -4.546875 5.46875 -4.765625 C 5.75 -4.984375 5.890625 -5.316406 5.890625 -5.765625 C 5.890625 -6.203125 5.75 -6.53125 5.46875 -6.75 C 5.1875 -6.976562 4.773438 -7.09375 4.234375 -7.09375 L 2.40625 -7.09375 Z M 2.40625 -4.4375 "/></g></g></g><g fill="#d2ae6d" fill-opacity="1"><g transform="translate(65.789248, 12.846799)"><g><path d="M 1.609375 0.09375 C 1.390625 0.09375 1.21875 0.03125 1.09375 -0.09375 C 0.976562 -0.21875 0.921875 -0.390625 0.921875 -0.609375 L 0.921875 -7.671875 C 0.921875 -7.898438 0.984375 -8.070312 1.109375 -8.1875 C 1.234375 -8.3125 1.410156 -8.375 1.640625 -8.375 C 1.828125 -8.375 1.976562 -8.335938 2.09375 -8.265625 C 2.207031 -8.191406 2.3125 -8.066406 2.40625 -7.890625 L 5.3125 -2.515625 L 4.9375 -2.515625 L 7.84375 -7.890625 C 7.9375 -8.066406 8.035156 -8.191406 8.140625 -8.265625 C 8.253906 -8.335938 8.40625 -8.375 8.59375 -8.375 C 8.820312 -8.375 8.992188 -8.3125 9.109375 -8.1875 C 9.222656 -8.070312 9.28125 -7.898438 9.28125 -7.671875 L 9.28125 -0.609375 C 9.28125 -0.390625 9.222656 -0.21875 9.109375 -0.09375 C 8.992188 0.03125 8.820312 0.09375 8.59375 0.09375 C 8.375 0.09375 8.207031 0.03125 8.09375 -0.09375 C 7.976562 -0.21875 7.921875 -0.390625 7.921875 -0.609375 L 7.921875 -6.046875 L 8.171875 -6.046875 L 5.703125 -1.546875 C 5.628906 -1.410156 5.546875 -1.3125 5.453125 -1.25 C 5.367188 -1.1875 5.253906 -1.15625 5.109375 -1.15625 C 4.960938 -1.15625 4.84375 -1.1875 4.75 -1.25 C 4.65625 -1.320312 4.570312 -1.421875 4.5 -1.546875 L 2.015625 -6.0625 L 2.296875 -6.0625 L 2.296875 -0.609375 C 2.296875 -0.390625 2.238281 -0.21875 2.125 -0.09375 C 2.007812 0.03125 1.835938 0.09375 1.609375 0.09375 Z M 1.609375 0.09375 "/></g></g></g></g></g></svg>